<svg id="Capa_1" data-name="Capa 1" xmlns="http://www.w3.org/2000/svg" viewBox="0 0 1436.85 706.05"><defs><style>.cls-1{fill:#e30613;}.cls-2{font-size:125.24px;fill:#1d1d1b;font-family:Unispace-Bold, Unispace;font-weight:700;}</style></defs><path class="cls-1" d="M110.15,869.79c2.17,4.62,4,7.82,5.21,11.22,8.79,23.82,27.11,35.81,50.82,41.06a285.58,285.58,0,0,0,70.92,6.54c38.83-1.17,76.37-9.16,113.52-19.55,27.7-7.75,55.35-15.76,82.75-24.48,19.44-6.18,38.63-13.26,57.57-20.82,20.46-8.18,40.69-17,60.7-26.23,26.28-12.13,51-26.93,72.15-47,6.46-6.14,11.56-13.87,16.58-21.35,3.8-5.65,3.42-8.42-1.8-13.29a181.66,181.66,0,0,0-21-17.15c-29-19.82-61.41-30.74-95.83-36.88-28.49-5.09-57.23-6.23-86-7.24-21.1-.74-42.25-.16-63.37-.37a111.63,111.63,0,0,1-15-1.45c-11.53-1.71-19.75-8-24.47-18.65-2.71-6.08-5-12.35-7.7-19.15-3.47,4-2,8.54-2.37,12.54-2.76,29.07-4.39,58.28-8.29,87.2-2.76,20.52-8.3,40.69-13.07,60.91a75,75,0,0,1-6.72,16.77c-4.09,8-9,9.13-14.77,2.26-6.83-8.13-13.85-16.94-17.51-26.68a181.28,181.28,0,0,1-10-41.91c-6.18-52-9-104.35-9.5-156.73-.29-28.88,1.56-57.72,11-85.48A153,153,0,0,1,283.86,472c32.62-37.41,74.47-59.83,121.51-72.87,29.8-8.26,60.43-12.6,91.54-10.66A138.33,138.33,0,0,1,538.1,397c13.77,5.28,24.07,14.48,31.35,27.06a108.36,108.36,0,0,1,13.41,39.81c2.14,15.38-2.66,28.63-12,40.25-12.66,15.74-27,30-43.56,41.58-38.49,26.93-77.25,53.47-115.9,80.17-7.41,5.11-14.82,10.22-21.91,17,6,0,12,.27,18-.05,40.07-2.09,79.91,0,118.93,9.48,34.19,8.3,66.33,22,93,45.66,30.86,27.39,47.43,62.09,48.4,103.63.27,11.24-3.5,21.53-9.77,31.12-12.91,19.75-30.62,34.29-49.61,47.64-27.58,19.38-58.22,32.75-89,46-42.9,18.48-87.52,31.65-132.74,42.85-31.52,7.81-63.41,13.87-96.05,14.7-29,.75-57.9-.91-85.25-11.43-46.6-17.94-80.35-49-95.65-97.78a10,10,0,0,1-.38-2A17.62,17.62,0,0,1,110.15,869.79ZM561.92,447.72c-4.83-2.06-8-3.74-11.39-4.79a162,162,0,0,0-62.7-6.38c-48.74,4.28-94.77,17.28-136.39,44C339.87,488,328.93,496.06,320,504.9c6.05,46.71,5.22,92.54,4.44,139.44,5.24-4.1,9.26-7.51,13.53-10.57,38.74-27.72,77.75-55.06,116.22-83.14,32-23.34,63.52-47.33,89.54-77.54C550.21,465.59,555.36,457,561.92,447.72Zm-250.14,66c-3.79,3.52-6,5.32-7.91,7.42-21,23.23-31.13,51.2-35.83,81.63-3.91,25.31-4.43,50.77-4.09,76.29.48,36.27,2.69,72.42,7.87,108.35.34,2.35,1.31,4.6,2.29,8a28,28,0,0,0,2.65-3.71c.8-1.84,1.42-3.76,2.1-5.64,13-35.56,18.53-72.73,23.48-110,5.62-42.28,8.34-84.8,9.4-127.43C312,537.72,311.78,526.79,311.78,513.73Z" transform="translate(0 -388)"/><path class="cls-1" d="M674.8,685c-6,11.36-2.66,22.23-5.54,32.72-7.67-21.38-6.17-52.52,3.16-65.49,13.33,4,23.23,12.29,26.37,26.06,3.79,16.64,6,33.65,8.7,50.52.82,5.13,1.08,10.35,3.14,15.53,3.61-13.82,7-27.7,10.9-41.46,1.53-5.45,4-10.67,6-16,1.78-4.51,5.33-6.18,9.73-4.75,17.71,5.74,34.15,13.67,40,33.14,3.37,11.16,4.69,23,6.72,34.5,1.15,6.53,1.85,13.13,2.84,20.32,4.59-1.64,5.17-5.57,6.53-8.72,8.6-20,17.49-39.94,25.42-60.23,3.21-8.23,6.89-9.12,14.79-5.48a181.55,181.55,0,0,1,17.59,9.72c13.4,8.08,20,20.21,21.17,35.69,1.31,16.73,3,33.42,4.66,50.11.39,3.93,1.41,7.79,2.33,12.71,26-9.68,50.13-20,65.63-43.57,4.57-7,7.1-14.43,5.19-22.91-.34-1.53-.25-3.15,1.26-5.53,5.71,8.54,11.41,17.08,17.72,26.51l10.87-6.34c-5.68-14.93-5.37-29.42-.1-43.75,5.69-15.5,14.7-28.62,28.38-38.2,15.87-11.11,28.15-9.8,40.43,5.23a167.84,167.84,0,0,1,15.63,23.37c5.46,9.63,10.09,19.73,14.89,29.71,4.7,9.76,3.93,10.87-6.06,15.91-18,9.06-36,18-53.48,28-12.18,7-23.4,15.67-35,23.65-1.3.89-2.34,2.15-5.21,4.85,11.22-.87,20.29-1.74,29.38-2.23,12.72-.69,25.47-1,38.19-1.66,9.52-.48,16.82,3.28,22.69,10.64,5.46,6.86,10.61,13.79,12.78,23.81-3.82,1.44-7.32,3.56-11,4-27.93,3.58-55.86,7.23-83.87,10-15.57,1.55-31,.25-43.84-11.47-4,2.58-7.5,5.17-11.27,7.15-12.94,6.81-26.52,6.83-40,2.31-22.18-7.43-44.82-22.84-61.11-40.95-4.59,6.93-9.1,13.72-13.59,20.51a25.54,25.54,0,0,1-1.61,2.55c-11.69,13.84-12.94,13.82-28.11,8.2a99.24,99.24,0,0,1-17.84-9.23c-10.3-6.44-19.84-13.75-23-27.21-.62,1.68-1.3,3.33-1.83,5-3.71,11.84-7.35,23.71-11.1,35.53a47.81,47.81,0,0,1-3.06,7.45c-4.91,9.44-8.85,11.66-18.57,7.91-9-3.48-17.48-8.39-26-13-6.82-3.69-9.52-9.65-9.53-17.51,0-23.14-.52-46.28-.84-69.42q-.42-30.19-.9-60.38C675.43,691,675.15,689.05,674.8,685Zm388.34,29.32c-2.81-5.71-5.47-11.43-8.39-17-5.2-10-12.54-13.42-23.3-10.64a43.53,43.53,0,0,0-11.17,4.42,75.56,75.56,0,0,0-34.38,41.82c-1.65,4.82-1.83,10.15-2.84,16.16Z" transform="translate(0 -388)"/><path class="cls-1" d="M1392.71,762.38c.74-2.06,2.16-4,1.93-5.71-3.37-25.5-6.65-51-13.25-75.84-19.1.51-56,29.62-67.82,52.9-13.34-5.93-16.73-14.77-10.15-26.94,9-16.65,20-31.87,34.39-44.26,20.1-17.25,29.11-15.24,46.62-.87,16,13.12,27.84,29.27,32.74,49.52,6.78,28,12.75,56.19,18.9,84.34,1.27,5.81,0,7.39-5.82,7.66-8.71.42-17.45.15-26.14.72-10.66.7-21,2.83-32.1,8.73,7.38,1.28,13.24,2,18.92,3.35,13.88,3.38,26.2,10.19,37.88,18.2a20.85,20.85,0,0,1,5.68,5.55c4.44,6.86,2.6,12.16-5.35,14.45-9.32,2.67-18.74,5.13-28.27,6.88-19.74,3.63-39.56,6.88-59.39,10a65.24,65.24,0,0,1-38.3-5,128,128,0,0,1-42.26-31.94c-7.25-8.19-7.82-11.75-.84-20.31a99.06,99.06,0,0,1,19.79-18.23c24.23-17,51-28.08,80.47-31.89C1370.91,762.31,1381.71,762.77,1392.71,762.38Z" transform="translate(0 -388)"/><path d="M178.14,634c8.22-8.56,17.41-16.44,21.21-28.48-30.3-.24-107.87,43.58-120.54,68.25q14.72,6.5,29.37,12.94c32.57,14.24,62.7,32.27,87.75,57.8,12,12.27,22.23,26.06,28,42.61,5,14.25,2.82,23.15-9.81,31.31a123.74,123.74,0,0,1-27.88,13.67C154.92,842.5,122.87,849,89.53,847.31c-20.7-1.07-38.25-9-53.24-23.06-13.6-12.76-25.19-27.06-32.87-44.17-6.87-15.32-3.78-21.31,12.88-24.84,7.2-1.52,14.6-2.09,21.94-2.86,1.45-.15,3,.77,5.81,1.57-4.5,11.62-8.78,22.66-13.19,34,9.8,4.58,19.33,6,29,6.68,34.22,2.23,67.57-3.25,100.54-11.73,13.26-3.42,26.59-6.81,39.66-15.08-3.21-3-5.88-5.76-8.79-8.21-20.93-17.67-44.5-31.1-68.94-43.21C110,710.33,98,703.69,86.14,696.73,75.65,690.56,69.35,680.6,63.94,670c-4.61-9.08-3-17.06,4-23.87a131.22,131.22,0,0,1,16.84-14.33c24.43-16.94,50.71-30.33,79.18-39a149.85,149.85,0,0,1,23.61-4.86c7.82-1.07,14.55,1.42,19.23,8.34,5.92,8.74,6.33,13.62-.55,21.76a109.79,109.79,0,0,1-16.94,15.56c-2.55,2-6.55,2.07-9.89,3Z" transform="translate(0 -388)"/><path class="cls-1" d="M1193.61,498.94a28.08,28.08,0,0,1,20.53,9.3c2.18,2.28,3.14,6.62,3.09,10-.23,18.44-1,36.88-1.49,55.33A777.6,777.6,0,0,0,1221.31,688a1017.1,1017.1,0,0,0,22.63,122.53c4.14,16.9,9.56,33.49,14.66,50.14,1.45,4.74,3.82,9.2,5.81,13.89l7.9-1.12c2.58,3.51,1.21,10.64-2.47,13a19.94,19.94,0,0,1-7.41,3c-10.66,1.75-21.28,2.29-31.94-.68-8.19-2.29-14.19-7-19.11-13.76-9.27-12.79-14-27.45-17.65-42.47-9.85-40.17-14.16-81.13-17-122.31a730.84,730.84,0,0,1-.3-94.53c2-32.47,5.46-64.79,11.52-96.78C1189.22,512.14,1191.69,505.59,1193.61,498.94Z" transform="translate(0 -388)"/><path class="cls-1" d="M1115.54,517.37c14.86,1.66,18.51,5.38,18.72,19.26.39,25.53.14,51.06.78,76.58,1.21,48,5.64,95.81,11.11,143.51,2.79,24.34,5.72,48.66,8.61,73,.24,2,.68,3.95,1.14,6.52l5.65-.38c2.51,17.84,4.68,35.67,2,53.8-.6,4.08-3,5.93-6.65,6.23-5.34.43-10.73,1-16.05.7-9.48-.56-11.68-2.29-13.49-11.75-2.46-12.85-4.57-25.79-6.17-38.78-6.58-53.3-12.42-106.7-14.22-160.42-1.7-51.07-.15-102.06,5.8-152.85C1113.36,527.82,1114.53,522.93,1115.54,517.37Z" transform="translate(0 -388)"/><text class="cls-2" transform="translate(624.8 675.62) scale(0.79 1)">Racing League</text></svg>